# xmcd
#
# Track frame offsets: 
#        150
#        13617
#        34762
#        50497
#        74020
#        88677
#        105502
#        122712
#        149635
#        168025
#        183710
#        202652
#        219325
#
# Disc length: 4440 seconds
#
# Revision: 1
# Processed by: cddbd v1.5.1PL2 Copyright (c) Steve Scherf et al.
# Submitted via: ExactAudioCopy v0.95b4
#
DISCID=b611560d
DTITLE=Charlie Musselwhite - Sanctuary
DYEAR=2004
DGENRE=Blues
TTITLE0=Homeless child
TTITLE1=My road lies in the darkness
TTITLE2=Burn down the cornfield
TTITLE3=Train to nowhere
TTITLE4=Shootin' for the moon
TTITLE5=Shadow people
TTITLE6=Snake song
TTITLE7=The neighborhood
TTITLE8=Alicia
TTITLE9=Sanctuary
TTITLE10=I had trouble
TTITLE11=Route 19
TTITLE12=Copy Protection Programm
EXTD=YEAR: 2004
EXTT0=
EXTT1=
EXTT2=
EXTT3=
EXTT4=
EXTT5=
EXTT6=
EXTT7=
EXTT8=
EXTT9=
EXTT10=
EXTT11=
EXTT12=
PLAYORDER=
